<?xml version="1.0" encoding="utf-8"?>
<!-- Generator: Adobe Illustrator 24.3.0, SVG Export Plug-In . SVG Version: 6.00 Build 0)  -->
<svg version="1.1" id="Слой_5" xmlns="http://www.w3.org/2000/svg" xmlns:xlink="http://www.w3.org/1999/xlink" x="0px" y="0px"
	 viewBox="0 0 360.8 379" style="enable-background:new 0 0 360.8 379;" xml:space="preserve">
<style type="text/css">
	.st0{fill:#C6202C;}
</style>
<g>
	<g>
		<path class="st0" d="M184.6,78.4h-4.1h-4.1c-1.1,0-2,0.9-2,2v2.1c0,1.1,0.9,2,2,2h4.1h4.1c1.1,0,2-0.9,2-2v-2.1
			C186.6,79.3,185.7,78.4,184.6,78.4z"/>
		<path class="st0" d="M192.3,86.2h-11.8h-11.8c-0.7,0-1.2,0.5-1.2,1.2v0.1c0,0.7,0.5,1.2,1.2,1.2h0.6v1.1c0,2.1,1.7,3.9,3.9,3.9h7
			h0.3h7.5c2.1,0,3.9-1.7,3.9-3.9v-1.1h0.6c0.7,0,1.2-0.5,1.2-1.2v-0.1C193.5,86.8,193,86.2,192.3,86.2z"/>
		<polygon class="st0" points="174.8,95.4 179.5,95.4 179.4,133.1 173.9,133.1 		"/>
		<polygon class="st0" points="185.9,95.4 181.3,95.4 181.3,133.1 186.9,133.1 		"/>
		<path class="st0" d="M188.5,134.9h-8.1h-8.1c-0.4,0-0.8,0.3-0.8,0.8v1.8c0,0.4,0.3,0.8,0.8,0.8h8.1h8.1c0.4,0,0.8-0.3,0.8-0.8
			v-1.8C189.3,135.2,188.9,134.9,188.5,134.9z"/>
		<polygon class="st0" points="178.9,140 172.8,140 164.9,208.4 174.8,208.4 		"/>
		<polygon class="st0" points="181.9,140 188.1,140 195.9,208.4 186.1,208.4 		"/>
		<path class="st0" d="M187.2,210.4h-6.7h-6.7c-7.7-0.2-13,1.4-13,5v3.4h19.8h19.8v-3.4C200.3,211.8,194.9,210.2,187.2,210.4z"/>
		<g>
			<g>
				<polygon class="st0" points="163.3,231 154.8,259 163,259 170.6,231 				"/>
				<path class="st0" d="M201.9,231.3c-1.8-6.4-1.8-10.9-1.8-10.9h-0.5c-0.7,2.8-3.6,6.5-6.6,6.5c-2.6,0-5.8-4.1-6.8-6.3
					c-1.1,2-3.3,6-5.7,6c-2.5,0-4.6-4-5.7-6c-1.1,2.2-4.3,6.3-6.8,6.3c-3,0-5.9-3.7-6.6-6.5h-0.5c0,0,0,4.5-1.8,10.9l-8.8,29.4h2.7
					l1.1-3.9h0l8.1-27.1h10.7l-7.3,27.1h0l-1.1,3.9h3.1l7.6-29.4h5.4h5.4l7.6,29.4h3.1l-1.1-3.9h0l-7.3-27.1h10.7l8.1,27.1h0
					l1.1,3.9h2.7L201.9,231.3z"/>
				<polygon class="st0" points="190.2,231 197.8,259 206,259 197.5,231 				"/>
			</g>
		</g>
		<path class="st0" d="M212,263.9c-0.2-0.7-1-1.2-1.8-1.2l-29.8,0.1l-29.8-0.1c-0.8,0-1.5,0.5-1.8,1.2l-2,5.9h33.6h33.6L212,263.9z"
			/>
		<g>
			<g>
				<polygon class="st0" points="148.2,275.7 123.1,318.4 129.3,318.4 153,275.7 				"/>
				<path class="st0" d="M215.6,272.3h-35.1h-35.1c-9.1,20.7-26.9,46.1-26.9,46.1h2.7l26.2-44.2h8.4l-24.7,44.2h3.1l25.1-44.1h21.2
					h21.2l25.1,44.1h3.1l-24.7-44.2h8.4l26.2,44.2h2.7C242.5,318.4,224.7,293,215.6,272.3z"/>
				<polygon class="st0" points="207.8,275.7 231.6,318.4 237.7,318.4 212.6,275.7 				"/>
				<path class="st0" d="M180.4,275.7h-20.1l-6.6,11.1l3.5-1.9c7-3.5,14.9-5.5,23.2-5.5c8.3,0,16.2,2,23.2,5.5l3.5,1.9l-6.6-11.1
					H180.4z"/>
			</g>
		</g>
		<path class="st0" d="M222.9,318.4c0-20.5-19-37.1-42.5-37.1c-23.4,0-42.5,16.6-42.5,37.1 M140.4,318.4c0-19.3,17.9-35,40-35
			c22.1,0,40,15.7,40,35"/>
	</g>
</g>
</svg>
